<svg width="120" height="16" viewBox="0 0 120 16" fill="none" xmlns="http://www.w3.org/2000/svg">
<path d="M0.4 15V0.999999H7.02C8.56667 0.999999 9.92667 1.28667 11.1 1.86C12.2733 2.43333 13.1867 3.24 13.84 4.28C14.5067 5.32 14.84 6.56 14.84 8C14.84 9.42667 14.5067 10.6667 13.84 11.72C13.1867 12.76 12.2733 13.5667 11.1 14.14C9.92667 14.7133 8.56667 15 7.02 15H0.4ZM4.36 11.84H6.86C7.66 11.84 8.35333 11.6933 8.94 11.4C9.54 11.0933 10.0067 10.6533 10.34 10.08C10.6733 9.49333 10.84 8.8 10.84 8C10.84 7.18667 10.6733 6.49333 10.34 5.92C10.0067 5.34667 9.54 4.91333 8.94 4.62C8.35333 4.31333 7.66 4.16 6.86 4.16H4.36V11.84ZM22.1834 15.18C20.9968 15.18 19.9434 14.94 19.0234 14.46C18.1034 13.98 17.3768 13.32 16.8434 12.48C16.3234 11.6267 16.0634 10.6533 16.0634 9.56C16.0634 8.46667 16.3234 7.5 16.8434 6.66C17.3768 5.82 18.1034 5.16667 19.0234 4.7C19.9434 4.22 20.9968 3.98 22.1834 3.98C23.3701 3.98 24.4234 4.22 25.3434 4.7C26.2768 5.16667 27.0034 5.82 27.5234 6.66C28.0434 7.5 28.3034 8.46667 28.3034 9.56C28.3034 10.6533 28.0434 11.6267 27.5234 12.48C27.0034 13.32 26.2768 13.98 25.3434 14.46C24.4234 14.94 23.3701 15.18 22.1834 15.18ZM22.1834 12.16C22.6234 12.16 23.0101 12.06 23.3434 11.86C23.6901 11.66 23.9634 11.3667 24.1634 10.98C24.3634 10.58 24.4634 10.1067 24.4634 9.56C24.4634 9.01333 24.3634 8.55333 24.1634 8.18C23.9634 7.79333 23.6901 7.5 23.3434 7.3C23.0101 7.1 22.6234 7 22.1834 7C21.7568 7 21.3701 7.1 21.0234 7.3C20.6901 7.5 20.4168 7.79333 20.2034 8.18C20.0034 8.55333 19.9034 9.01333 19.9034 9.56C19.9034 10.1067 20.0034 10.58 20.2034 10.98C20.4168 11.3667 20.6901 11.66 21.0234 11.86C21.3701 12.06 21.7568 12.16 22.1834 12.16ZM35.6038 15.18C34.4038 15.18 33.3304 14.94 32.3838 14.46C31.4504 13.98 30.7171 13.32 30.1838 12.48C29.6504 11.6267 29.3838 10.6533 29.3838 9.56C29.3838 8.46667 29.6504 7.5 30.1838 6.66C30.7171 5.82 31.4504 5.16667 32.3838 4.7C33.3304 4.22 34.4038 3.98 35.6038 3.98C36.8304 3.98 37.8904 4.24 38.7838 4.76C39.6771 5.28 40.3104 6.01333 40.6838 6.96L37.7438 8.46C37.4904 7.95333 37.1771 7.58667 36.8038 7.36C36.4304 7.12 36.0238 7 35.5838 7C35.1438 7 34.7438 7.1 34.3838 7.3C34.0238 7.5 33.7371 7.79333 33.5238 8.18C33.3238 8.55333 33.2238 9.01333 33.2238 9.56C33.2238 10.12 33.3238 10.5933 33.5238 10.98C33.7371 11.3667 34.0238 11.66 34.3838 11.86C34.7438 12.06 35.1438 12.16 35.5838 12.16C36.0238 12.16 36.4304 12.0467 36.8038 11.82C37.1771 11.58 37.4904 11.2067 37.7438 10.7L40.6838 12.2C40.3104 13.1467 39.6771 13.88 38.7838 14.4C37.8904 14.92 36.8304 15.18 35.6038 15.18ZM46.0545 15.18C45.1345 15.18 44.2345 15.0733 43.3545 14.86C42.4879 14.6467 41.7879 14.38 41.2545 14.06L42.3945 11.46C42.9012 11.7667 43.4945 12.0133 44.1745 12.2C44.8545 12.3733 45.5212 12.46 46.1745 12.46C46.8145 12.46 47.2545 12.3933 47.4945 12.26C47.7479 12.1267 47.8745 11.9467 47.8745 11.72C47.8745 11.5067 47.7545 11.3533 47.5145 11.26C47.2879 11.1533 46.9812 11.0733 46.5945 11.02C46.2212 10.9667 45.8079 10.9067 45.3545 10.84C44.9012 10.7733 44.4412 10.6867 43.9745 10.58C43.5212 10.46 43.1012 10.2867 42.7145 10.06C42.3412 9.82 42.0412 9.5 41.8145 9.1C41.5879 8.7 41.4745 8.19333 41.4745 7.58C41.4745 6.88667 41.6745 6.27333 42.0745 5.74C42.4879 5.19333 43.0879 4.76667 43.8745 4.46C44.6612 4.14 45.6212 3.98 46.7545 3.98C47.5145 3.98 48.2812 4.06 49.0545 4.22C49.8412 4.36667 50.5012 4.59333 51.0345 4.9L49.8945 7.48C49.3612 7.17333 48.8279 6.96667 48.2945 6.86C47.7612 6.74 47.2545 6.68 46.7745 6.68C46.1345 6.68 45.6812 6.75333 45.4145 6.9C45.1612 7.04667 45.0345 7.22667 45.0345 7.44C45.0345 7.65333 45.1479 7.82 45.3745 7.94C45.6012 8.04667 45.9012 8.13333 46.2745 8.2C46.6612 8.25333 47.0812 8.31333 47.5345 8.38C47.9879 8.43333 48.4412 8.52 48.8945 8.64C49.3612 8.76 49.7812 8.94 50.1545 9.18C50.5412 9.40667 50.8479 9.72 51.0745 10.12C51.3012 10.5067 51.4145 11.0067 51.4145 11.62C51.4145 12.2867 51.2079 12.8867 50.7945 13.42C50.3945 13.9533 49.7945 14.38 48.9945 14.7C48.2079 15.02 47.2279 15.18 46.0545 15.18ZM60.212 15.28C59.1054 15.28 58.0787 15.1067 57.132 14.76C56.1987 14.4 55.3854 13.8933 54.692 13.24C54.012 12.5867 53.4787 11.82 53.092 10.94C52.7054 10.0467 52.512 9.06667 52.512 8C52.512 6.93333 52.7054 5.96 53.092 5.08C53.4787 4.18667 54.012 3.41333 54.692 2.76C55.3854 2.10667 56.1987 1.60667 57.132 1.26C58.0787 0.899999 59.1054 0.719999 60.212 0.719999C61.5054 0.719999 62.6587 0.946666 63.672 1.4C64.6987 1.85333 65.552 2.50667 66.232 3.36L63.712 5.64C63.2587 5.10667 62.7587 4.7 62.212 4.42C61.6787 4.14 61.0787 4 60.412 4C59.8387 4 59.312 4.09333 58.832 4.28C58.352 4.46667 57.9387 4.74 57.592 5.1C57.2587 5.44667 56.992 5.86667 56.792 6.36C56.6054 6.85333 56.512 7.4 56.512 8C56.512 8.6 56.6054 9.14667 56.792 9.64C56.992 10.1333 57.2587 10.56 57.592 10.92C57.9387 11.2667 58.352 11.5333 58.832 11.72C59.312 11.9067 59.8387 12 60.412 12C61.0787 12 61.6787 11.86 62.212 11.58C62.7587 11.3 63.2587 10.8933 63.712 10.36L66.232 12.64C65.552 13.48 64.6987 14.1333 63.672 14.6C62.6587 15.0533 61.5054 15.28 60.212 15.28ZM74.8777 3.98C75.7177 3.98 76.4777 4.15333 77.1577 4.5C77.8377 4.83333 78.371 5.35333 78.7577 6.06C79.1577 6.76667 79.3577 7.68 79.3577 8.8V15H75.5577V9.42C75.5577 8.64667 75.3977 8.08667 75.0777 7.74C74.771 7.38 74.3377 7.2 73.7777 7.2C73.3777 7.2 73.011 7.29333 72.6777 7.48C72.3443 7.65333 72.0843 7.92667 71.8977 8.3C71.711 8.67333 71.6177 9.16 71.6177 9.76V15H67.8177V0.159999H71.6177V7.24L70.7377 6.34C71.151 5.55333 71.7177 4.96667 72.4377 4.58C73.1577 4.18 73.971 3.98 74.8777 3.98ZM87.5602 15.18C86.2802 15.18 85.1602 14.94 84.2002 14.46C83.2535 13.9667 82.5135 13.3 81.9802 12.46C81.4602 11.6067 81.2002 10.64 81.2002 9.56C81.2002 8.48 81.4535 7.52 81.9602 6.68C82.4802 5.82667 83.1935 5.16667 84.1002 4.7C85.0068 4.22 86.0268 3.98 87.1602 3.98C88.2268 3.98 89.2002 4.2 90.0802 4.64C90.9602 5.06667 91.6602 5.7 92.1802 6.54C92.7002 7.38 92.9602 8.4 92.9602 9.6C92.9602 9.73333 92.9535 9.88667 92.9402 10.06C92.9268 10.2333 92.9135 10.3933 92.9002 10.54H84.3202V8.54H90.8802L89.4402 9.1C89.4535 8.60667 89.3602 8.18 89.1602 7.82C88.9735 7.46 88.7068 7.18 88.3602 6.98C88.0268 6.78 87.6335 6.68 87.1802 6.68C86.7268 6.68 86.3268 6.78 85.9802 6.98C85.6468 7.18 85.3868 7.46667 85.2002 7.84C85.0135 8.2 84.9202 8.62667 84.9202 9.12V9.7C84.9202 10.2333 85.0268 10.6933 85.2402 11.08C85.4668 11.4667 85.7868 11.7667 86.2002 11.98C86.6135 12.18 87.1068 12.28 87.6802 12.28C88.2135 12.28 88.6668 12.2067 89.0402 12.06C89.4268 11.9 89.8068 11.66 90.1802 11.34L92.1802 13.42C91.6602 13.9933 91.0202 14.4333 90.2602 14.74C89.5002 15.0333 88.6002 15.18 87.5602 15.18ZM100.252 15.18C99.0522 15.18 97.9789 14.94 97.0322 14.46C96.0989 13.98 95.3655 13.32 94.8322 12.48C94.2989 11.6267 94.0322 10.6533 94.0322 9.56C94.0322 8.46667 94.2989 7.5 94.8322 6.66C95.3655 5.82 96.0989 5.16667 97.0322 4.7C97.9789 4.22 99.0522 3.98 100.252 3.98C101.479 3.98 102.539 4.24 103.432 4.76C104.326 5.28 104.959 6.01333 105.332 6.96L102.392 8.46C102.139 7.95333 101.826 7.58667 101.452 7.36C101.079 7.12 100.672 7 100.232 7C99.7922 7 99.3922 7.1 99.0322 7.3C98.6722 7.5 98.3855 7.79333 98.1722 8.18C97.9722 8.55333 97.8722 9.01333 97.8722 9.56C97.8722 10.12 97.9722 10.5933 98.1722 10.98C98.3855 11.3667 98.6722 11.66 99.0322 11.86C99.3922 12.06 99.7922 12.16 100.232 12.16C100.672 12.16 101.079 12.0467 101.452 11.82C101.826 11.58 102.139 11.2067 102.392 10.7L105.332 12.2C104.959 13.1467 104.326 13.88 103.432 14.4C102.539 14.92 101.479 15.18 100.252 15.18ZM109.884 13L109.984 8.46L114.404 4.16H118.904L114.004 9.22L112.064 10.78L109.884 13ZM106.724 15V0.159999H110.524V15H106.724ZM114.684 15L111.364 10.84L113.724 7.92L119.284 15H114.684Z" fill="#333333"/>
</svg>
